<svg xmlns="http://www.w3.org/2000/svg" width="24" height="22" viewBox="0 0 24 22" fill="none">
  <path d="M17 12.2543V14.8452C17 18.2998 15.4 19.6816 11.4 19.6816H7.6C3.6 19.6816 2 18.2998 2 14.8452V11.5634C2 8.10887 3.6 6.72705 7.6 6.72705H10.6" stroke="black" stroke-width="1.2" stroke-linecap="round" stroke-linejoin="round"/>
  <path d="M16.9996 12.2543H13.7996C11.3996 12.2543 10.5996 11.5634 10.5996 9.49069V6.72705L16.9996 12.2543Z" stroke="black" stroke-width="1.2" stroke-linecap="round" stroke-linejoin="round"/>
  <path d="M11.5996 2.40869H15.5996" stroke="black" stroke-width="1.2" stroke-linecap="round" stroke-linejoin="round"/>
  <path d="M7 4.9996C7 3.56596 8.34 2.40869 10 2.40869H12.62" stroke="black" stroke-width="1.2" stroke-linecap="round" stroke-linejoin="round"/>
  <path d="M21.9995 7.59082V12.9367C21.9995 14.2754 20.7395 15.3635 19.1895 15.3635" stroke="black" stroke-width="1.2" stroke-linecap="round" stroke-linejoin="round"/>
  <path d="M22 7.59051H19C16.75 7.59051 16 6.94278 16 4.9996V2.40869L22 7.59051Z" stroke="black" stroke-width="1.2" stroke-linecap="round" stroke-linejoin="round"/>
</svg>