<svg xmlns="http://www.w3.org/2000/svg" width="53" height="1559" viewBox="0 0 53 1559" fill="none">
  <path d="M24.0127 154.674C30.5497 134.209 31.3867 112.597 27.9968 92.3282C18.0543 32.8795 -48.68 13.3128 -108.932 11.6754L-506.089 0.882493C-495.923 15.4547 -484.737 58.2891 -521.325 113.049C-567.06 181.499 -469.672 275.282 -526.435 301.081C-563.048 347.798 -550.018 384.071 -517.117 473.957C-484.217 563.844 -461.454 555.885 -503.266 681.804C-565.939 777.975 -544.668 770.207 -527.031 838.771C-509.395 907.334 -454 931.892 -511.375 980.19C-571.445 1015.55 -537.587 1115.11 -503.828 1173.39C-470.068 1231.67 -538.358 1255.55 -540.279 1326.26C-569.6 1373.71 -480.338 1407.77 -502.034 1466.15C-525.452 1498.21 -520.917 1525.68 -513.96 1546.24L-70.3863 1558.29C-17.1477 1559.74 -0.958438 1516.96 26.6204 1471.4C69.9438 1399.83 -30.9259 1369.05 30.8713 1314.98C92.6686 1260.9 0.831133 1215.2 35.8793 1130.69C71.719 1044.28 -13.6214 1002.83 2.21941 956.62C61.7589 782.934 -75.7023 818.334 24.355 725.091C63.3164 681.654 -65.0925 606.028 -7.93888 523.177C54.8629 432.139 49.7516 373.565 19.2959 328.241C-11.1597 282.918 -3.50427 240.817 24.0127 154.674Z" fill="#435352"/>
</svg>