<svg xmlns="http://www.w3.org/2000/svg" width="152" height="169" viewBox="0 0 152 169" fill="none">
  <path d="M151.334 1.84906C151.517 1.4723 151.36 1.01839 150.984 0.835239C150.607 0.652085 150.153 0.809038 149.97 1.1858L151.334 1.84906ZM116.822 43.5558L116.173 43.9477L116.822 43.5558ZM70.1864 74.0449L69.5006 73.7207L70.1864 74.0449ZM42.4146 132.189L42.4072 132.948L42.4146 132.189ZM0.789577 168.52L8.00342 163.553L0.0945126 159.789L0.789577 168.52ZM147.489 5.12821C147.227 5.45548 147.28 5.93279 147.608 6.19431C147.935 6.45582 148.412 6.40252 148.674 6.07524L147.489 5.12821ZM145.905 8.96402C146.22 8.68831 146.252 8.20911 145.976 7.89371C145.701 7.5783 145.222 7.54612 144.906 7.82183L145.905 8.96402ZM136.844 12.5947C136.456 12.7521 136.269 13.1944 136.426 13.5826C136.584 13.9709 137.026 14.158 137.414 14.0006L136.844 12.5947ZM133.72 15.3258C134.119 15.1984 134.34 14.7717 134.212 14.3726C134.085 13.9735 133.658 13.7532 133.259 13.8805L133.72 15.3258ZM123.963 16.3956C123.558 16.5007 123.314 16.9146 123.419 17.3201C123.524 17.7256 123.938 17.9692 124.344 17.8642L123.963 16.3956ZM120.652 18.8954C121.052 18.7713 121.276 18.3463 121.152 17.9462C121.028 17.5461 120.603 17.3223 120.203 17.4464L120.652 18.8954ZM111.592 22.4828C111.344 22.8209 111.418 23.2955 111.756 23.5429C112.094 23.7903 112.568 23.7169 112.816 23.3788L111.592 22.4828ZM111.566 26.5958C111.619 26.1802 111.325 25.8003 110.91 25.7472C110.494 25.6941 110.114 25.9879 110.061 26.4034L111.566 26.5958ZM112.059 36.1148C112.224 36.4999 112.67 36.6785 113.055 36.5136C113.44 36.3487 113.618 35.9029 113.453 35.5178L112.059 36.1148ZM115.095 38.9559C114.901 38.5845 114.443 38.4404 114.072 38.6341C113.7 38.8279 113.556 39.286 113.75 39.6575L115.095 38.9559ZM118.994 48.7548C119.199 49.1197 119.662 49.2487 120.027 49.043C120.392 48.8372 120.521 48.3746 120.315 48.0097L118.994 48.7548ZM122.394 51.9624C122.216 51.5831 121.764 51.42 121.385 51.598C121.005 51.776 120.842 52.2278 121.02 52.607L122.394 51.9624ZM116.396 54.3429C116.001 54.2028 115.568 54.4092 115.428 54.804C115.288 55.1988 115.494 55.6325 115.889 55.7726L116.396 54.3429ZM111.73 54.3647C112.13 54.4896 112.555 54.2667 112.68 53.8668C112.805 53.4669 112.582 53.0415 112.182 52.9166L111.73 54.3647ZM101.169 50.764C100.75 50.7412 100.393 51.0619 100.37 51.4802C100.347 51.8985 100.668 52.2561 101.086 52.2788L101.169 50.764ZM96.7836 52.3501C97.2008 52.3119 97.5079 51.9427 97.4697 51.5255C97.4314 51.1083 97.0622 50.8012 96.645 50.8394L96.7836 52.3501ZM85.8764 54.1745C85.5113 54.3799 85.3818 54.8424 85.5872 55.2075C85.7926 55.5726 86.2551 55.7021 86.6202 55.4967L85.8764 54.1745ZM83.0422 57.9042C83.3709 57.6445 83.4268 57.1675 83.167 56.8388C82.9073 56.5101 82.4303 56.4542 82.1016 56.714L83.0422 57.9042ZM74.4984 64.9739C74.2589 65.3177 74.3435 65.7905 74.6872 66.0299C75.0309 66.2694 75.5037 66.1848 75.7432 65.8411L74.4984 64.9739ZM73.4123 69.5127C73.6225 69.1503 73.4991 68.6862 73.1367 68.476C72.7744 68.2658 72.3102 68.3892 72.1 68.7516L73.4123 69.5127ZM67.4084 78.8862C67.2736 79.2828 67.4859 79.7136 67.8826 79.8484C68.2792 79.9832 68.71 79.7709 68.8448 79.3742L67.4084 78.8862ZM67.6481 83.5096C67.7461 83.1023 67.4954 82.6927 67.0881 82.5946C66.6808 82.4966 66.2712 82.7473 66.1731 83.1546L67.6481 83.5096ZM64.732 94.1453C64.7178 94.564 65.0458 94.9149 65.4644 94.9291C65.8831 94.9432 66.234 94.6153 66.2482 94.1966L64.732 94.1453ZM66.2382 98.5376C66.2271 98.1189 65.8786 97.7884 65.4598 97.7995C65.041 97.8107 64.7106 98.1592 64.7217 98.578L66.2382 98.5376ZM65.4931 109.55C65.5299 109.967 65.898 110.276 66.3153 110.239C66.7326 110.202 67.0411 109.834 67.0044 109.417L65.4931 109.55ZM67.333 113.814C67.3108 113.396 66.9536 113.075 66.5353 113.097C66.117 113.119 65.7958 113.476 65.818 113.895L67.333 113.814ZM64.4843 124.251C64.2967 124.626 64.4483 125.082 64.8229 125.269C65.1975 125.457 65.6532 125.305 65.8408 124.931L64.4843 124.251ZM62.9176 128.561C63.2428 128.297 63.2925 127.82 63.0284 127.494C62.7644 127.169 62.2867 127.12 61.9615 127.384L62.9176 128.561ZM52.1654 130.913C51.7504 130.97 51.4608 131.353 51.5184 131.768C51.576 132.183 51.9591 132.473 52.3741 132.415L52.1654 130.913ZM47.9807 132.831C48.3989 132.807 48.7188 132.449 48.6952 132.031C48.6715 131.612 48.3133 131.293 47.895 131.316L47.9807 132.831ZM36.864 131.546C36.4457 131.569 36.1251 131.926 36.1479 132.345C36.1706 132.763 36.5282 133.084 36.9465 133.061L36.864 131.546ZM32.6268 133.436C33.0426 133.385 33.3384 133.007 33.2875 132.591C33.2366 132.175 32.8582 131.879 32.4424 131.93L32.6268 133.436ZM21.6362 134.633C21.2504 134.796 21.0699 135.241 21.2331 135.627C21.3962 136.013 21.8413 136.194 22.2271 136.03L21.6362 134.633ZM18.4528 138.012C18.8048 137.785 18.9061 137.315 18.679 136.963C18.4519 136.611 17.9824 136.51 17.6304 136.737L18.4528 138.012ZM9.92936 144.896C9.71612 145.257 9.83557 145.722 10.1962 145.935C10.5567 146.149 11.0219 146.029 11.2352 145.669L9.92936 144.896ZM9.2846 149.5C9.45436 149.117 9.28152 148.669 8.89853 148.5C8.51554 148.33 8.06745 148.503 7.89769 148.886L9.2846 149.5ZM4.02065 159.209C3.87726 159.603 4.08012 160.038 4.47374 160.182C4.86736 160.325 5.30269 160.122 5.44608 159.728L4.02065 159.209ZM3.84763 163.857C4.00904 163.47 3.8265 163.026 3.43991 162.865C3.05333 162.703 2.6091 162.886 2.4477 163.273L3.84763 163.857ZM149.97 1.1858C149.255 2.65704 148.42 3.96292 147.489 5.12821L148.674 6.07524C149.675 4.82252 150.57 3.4215 151.334 1.84906L149.97 1.1858ZM144.906 7.82183C142.534 9.89564 139.772 11.4076 136.844 12.5947L137.414 14.0006C140.446 12.7714 143.368 11.181 145.905 8.96402L144.906 7.82183ZM133.259 13.8805C130.121 14.8816 126.953 15.6212 123.963 16.3956L124.344 17.8642C127.287 17.1018 130.529 16.3438 133.72 15.3258L133.259 13.8805ZM120.203 17.4464C116.592 18.5662 113.416 19.9906 111.592 22.4828L112.816 23.3788C114.325 21.3163 117.068 20.0069 120.652 18.8954L120.203 17.4464ZM110.061 26.4034C109.735 28.9575 110.349 32.1201 112.059 36.1148L113.453 35.5178C111.793 31.6399 111.288 28.7683 111.566 26.5958L110.061 26.4034ZM113.75 39.6575C114.45 40.9997 115.255 42.4275 116.173 43.9477L117.472 43.1639C116.568 41.6669 115.779 40.2666 115.095 38.9559L113.75 39.6575ZM116.173 43.9477C117.279 45.7813 118.215 47.3747 118.994 48.7548L120.315 48.0097C119.527 46.6124 118.583 45.0053 117.472 43.1639L116.173 43.9477ZM121.02 52.607C121.698 54.0503 121.98 54.9565 122.013 55.4859C122.02 55.6083 122.013 55.6913 122.002 55.7441C121.997 55.7698 121.991 55.7868 121.987 55.7971C121.983 55.8071 121.981 55.8113 121.98 55.8117C121.98 55.8119 121.981 55.8107 121.982 55.8093C121.984 55.808 121.984 55.8087 121.98 55.811C121.972 55.8158 121.944 55.8306 121.883 55.8436C121.749 55.8716 121.527 55.8773 121.184 55.8275C120.848 55.7787 120.442 55.6838 119.96 55.5458C118.992 55.2686 117.804 54.8423 116.396 54.3429L115.889 55.7726C117.275 56.2644 118.518 56.7108 119.542 57.0042C120.056 57.1514 120.535 57.2663 120.966 57.3288C121.388 57.3902 121.812 57.4087 122.195 57.3281C122.596 57.2438 122.987 57.0412 123.247 56.6467C123.495 56.2711 123.553 55.826 123.527 55.3928C123.475 54.5496 123.075 53.414 122.394 51.9624L121.02 52.607ZM112.182 52.9166C108.969 51.913 105.205 50.9832 101.169 50.764L101.086 52.2788C104.947 52.4885 108.578 53.3803 111.73 54.3647L112.182 52.9166ZM96.645 50.8394C93.1184 51.1629 89.4732 52.151 85.8764 54.1745L86.6202 55.4967C90.0122 53.5884 93.4475 52.6561 96.7836 52.3501L96.645 50.8394ZM82.1016 56.714C79.4765 58.7886 76.9218 61.495 74.4984 64.9739L75.7432 65.8411C78.0913 62.4703 80.5464 59.8766 83.0422 57.9042L82.1016 56.714ZM72.1 68.7516C71.2104 70.2855 70.3428 71.9392 69.5006 73.7207L70.8722 74.369C71.6974 72.6235 72.5453 71.0076 73.4123 69.5127L72.1 68.7516ZM69.5006 73.7207C68.6786 75.4595 67.9872 77.1825 67.4084 78.8862L68.8448 79.3742C69.4054 77.7242 70.0752 76.0548 70.8722 74.369L69.5006 73.7207ZM66.1731 83.1546C65.2588 86.9535 64.8508 90.6311 64.732 94.1453L66.2482 94.1966C66.3642 90.7644 66.762 87.1908 67.6481 83.5096L66.1731 83.1546ZM64.7217 98.578C64.826 102.499 65.1973 106.19 65.4931 109.55L67.0044 109.417C66.7064 106.033 66.341 102.4 66.2382 98.5376L64.7217 98.578ZM65.818 113.895C66.0409 118.096 65.837 121.55 64.4843 124.251L65.8408 124.931C67.3839 121.849 67.5575 118.045 67.333 113.814L65.818 113.895ZM61.9615 127.384C59.9215 129.04 56.8307 130.265 52.1654 130.913L52.3741 132.415C57.1841 131.747 60.58 130.459 62.9176 128.561L61.9615 127.384ZM47.895 131.316C46.2239 131.411 44.4037 131.45 42.4219 131.431L42.4072 132.948C44.4175 132.967 46.2715 132.928 47.9807 132.831L47.895 131.316ZM42.4219 131.431C40.4575 131.411 38.6076 131.451 36.864 131.546L36.9465 133.061C38.6549 132.968 40.4723 132.929 42.4072 132.948L42.4219 131.431ZM32.4424 131.93C28.1509 132.456 24.6033 133.378 21.6362 134.633L22.2271 136.03C25.0401 134.841 28.4464 133.948 32.6268 133.436L32.4424 131.93ZM17.6304 136.737C14.1821 138.962 11.7823 141.763 9.92936 144.896L11.2352 145.669C12.9918 142.698 15.2381 140.086 18.4528 138.012L17.6304 136.737ZM7.89769 148.886C6.44613 152.16 5.29713 155.705 4.02065 159.209L5.44608 159.728C6.7485 156.153 7.86085 152.712 9.2846 149.5L7.89769 148.886Z" fill="#C18F48"/>
</svg>