<svg xmlns="http://www.w3.org/2000/svg" width="66" height="1064" viewBox="0 0 66 1064" fill="none">
  <path d="M56.1449 839.18C91.5846 870.109 83.6682 898.764 54.0045 957.372C17.9848 1028.54 143.703 1053.87 223.452 1055.32L659.082 1063.21C647.262 1053.26 633.761 1024.07 674.311 986.851C725 940.331 612.622 876.261 676.63 858.809C717.358 827.07 701.883 802.34 662.839 741.058C623.796 679.775 598.083 685.148 643.25 599.482C712.667 534.118 688.646 539.364 667.338 492.634C646.031 445.904 582.644 429.065 646.929 396.292C714.516 372.337 674.207 304.464 634.774 264.704C595.34 224.944 672.478 208.825 673.35 160.673C705.78 128.418 603.743 105.04 627.308 65.3266C653.317 43.538 647.656 24.825 639.372 10.8083L97.701 0.998899C57.8445 0.277117 54.5928 32.2432 26.6285 60.6521C-21.2623 109.304 93.9021 130.474 24.6995 167.172C-44.5031 203.869 60.6769 235.186 22.427 292.66C-16.6868 351.433 81.0333 379.841 63.894 411.278C-0.525943 529.438 154.982 505.615 43.0395 568.907C-0.417531 598.408 146.865 650.177 83.4709 706.482C13.8125 768.35 20.7053 808.25 56.1449 839.18Z" fill="#435352"/>
</svg>