<svg xmlns="http://www.w3.org/2000/svg" width="1440" height="117" viewBox="0 0 1440 117" fill="none">
  <path d="M44.5888 36.089C15.338 54.6082 -11.5254 47.0582 -17 59.9302V115H1456V21.3142C1437.69 9.33762 1424.5 -15.3924 1362.59 21.3142C1323.07 44.7457 1317.5 36.089 1292.28 21.3142C1238.21 -10.3536 1169.61 59.9302 1108.02 21.3142C1046.43 -17.3018 1042.33 59.9302 899.134 21.3142C755.94 -17.3018 832.509 74.0852 687.679 36.089C535 -3.9665 616.052 73.0759 490.082 21.3142C343.5 -38.917 373.5 67.2791 267.335 21.3142C167.551 -21.8883 201.127 59.9302 142.105 36.089C83.0819 12.2478 84.5 10.8205 44.5888 36.089Z" stroke="url(#paint0_linear_253_2090)" stroke-width="3"/>
  <defs>
    <linearGradient id="paint0_linear_253_2090" x1="719.5" y1="2" x2="742" y2="267.5" gradientUnits="userSpaceOnUse">
      <stop stop-color="#C18F48"/>
      <stop offset="1" stop-color="#C18F48" stop-opacity="0"/>
    </linearGradient>
  </defs>
</svg>