<svg xmlns="http://www.w3.org/2000/svg" width="1440" height="172" viewBox="0 0 1440 172" fill="none">
  <path d="M1394.41 119.282C1423.66 91.7287 1450.53 102.962 1456 83.8107V1.877L-17 1.877V141.264C1.30554 159.083 14.5 195.877 76.4098 141.264C115.93 106.402 121.5 119.282 146.724 141.264C200.787 188.38 269.388 83.8107 330.977 141.264C392.566 198.718 396.672 83.8107 539.866 141.264C683.06 198.718 606.491 62.7506 751.321 119.282C904 178.877 822.948 64.2522 948.918 141.264C1095.5 230.877 1065.5 72.8768 1171.66 141.264C1271.45 205.541 1237.87 83.8107 1296.9 119.282C1355.92 154.753 1354.5 156.877 1394.41 119.282Z" stroke="url(#paint0_linear_253_2087)" stroke-width="3"/>
  <defs>
    <linearGradient id="paint0_linear_253_2087" x1="719.5" y1="170" x2="630.5" y2="-307.5" gradientUnits="userSpaceOnUse">
      <stop stop-color="#C18F48"/>
      <stop offset="1" stop-color="#C18F48" stop-opacity="0"/>
    </linearGradient>
  </defs>
</svg>